<svg id="Pantone_360" data-name="Pantone 360" xmlns="http://www.w3.org/2000/svg" viewBox="0 0 619 113"><defs><style>.cls-1{fill:#6cc04a}.cls-2{fill:#fff}</style></defs><title>msb-logo-white</title><path class="cls-1" d="M8.05 48.53a8.24 8.24 0 0 0 0 16.47h5.37c-.16-2.62-.26-5.35-.28-8.23s.11-5.61.28-8.23H8.05zM34 56.94v-.09-.09C34 14.35 52.28 8.65 52.28 8.65 24 7.8 22.16 45.13 22.16 56.76v.18c0 11.63 1.88 49 30.12 48.11 0-.05-18.28-5.7-18.28-48.11z"/><path class="cls-1" d="M58.15 56.94v-.09-.09c0-46.31 24.4-55.95 24.4-55.95C49.35-2 45.11 45.75 45.24 56.76v.18c-.13 11 4.11 58.71 37.32 55.95 0-.01-24.41-9.64-24.41-55.95z"/><path class="cls-1" d="M81.43 56.94v-.09-.09c0-40.68 20.06-49.47 20.06-49.47C72.48 5 69.64 43.59 69.64 56.76v.18c0 13.17 2.84 51.73 31.85 49.47.01 0-20.06-8.8-20.06-49.47z"/><path class="cls-2" d="M205.57 53c-2.82-1-5.25-1.93-5.25-3.41 0-1.67 1.81-2.41 3.6-2.41a14.08 14.08 0 0 1 7.8 2.91l.2.17 3.92-7.08-.11-.11s-4-3.86-11.72-3.86c-7.5 0-12.94 4.41-12.94 10.49 0 6.51 6.37 9 11 10.78 2.78 1.08 5.17 2 5.17 3.39 0 2.28-2.72 2.46-3.55 2.46-4.39 0-8.41-3.38-8.45-3.42l-.18-.15-4.87 6.57.13.13a19.58 19.58 0 0 0 13.28 4.85c8.86 0 12.89-5.51 12.89-10.63.01-6.68-6.31-8.95-10.92-10.68z"/><path class="cls-2" d="M218.94 47.26L229.85 47.26 229.85 73.76 239.09 73.76 239.09 47.26 250 47.26 250 39.79 218.94 39.79 218.94 47.26z"/><path class="cls-2" d="M276.12 59.81a10.24 10.24 0 0 0 5.32-9.25c0-4.79-2.47-8.42-6.78-10-1.66-.6-3.51-.81-7.06-.81h-12.74v34h9.23V62.46h3.78l6.38 11.3h10.31l-7.18-12a22.66 22.66 0 0 0-1.26-1.95zM272 51.08c0 2.49-1.59 3.91-4.36 3.91h-3.6v-7.73h2.75c4.39 0 5.21 1.46 5.21 3.82z"/><path class="cls-2" d="M300.1 60.39L311.06 60.39 311.06 52.93 300.1 52.93 300.1 47.26 313.83 47.26 313.83 39.79 290.87 39.79 290.87 73.76 314.53 73.76 314.53 66.3 300.1 66.3 300.1 60.39z"/><path class="cls-2" d="M342.87 55.67c0 1.07.1 2.52.21 3.76l-12.54-19.64h-9.24v34h9.23V57.93c0-1.09-.11-2.57-.2-3.69l12.58 19.53h9.19v-34h-9.23v15.9z"/><path class="cls-2" d="M396.54 47.26L407.45 47.26 407.45 73.76 416.68 73.76 416.68 47.26 427.59 47.26 427.59 39.79 396.54 39.79 396.54 47.26z"/><path class="cls-2" d="M454.32 39.79L454.32 53.21 441.69 53.21 441.69 39.79 432.45 39.79 432.45 73.76 441.69 73.76 441.69 60.63 454.32 60.63 454.32 73.76 463.55 73.76 463.55 39.79 454.32 39.79z"/><path class="cls-2" d="M378.48 62.35h6.46v2.29a13.8 13.8 0 0 1-6.45 1.71c-6.5 0-10.38-3.55-10.39-9.52s3.89-9.48 10.39-9.48a14.54 14.54 0 0 1 8.6 3.12l.19.16 4.46-6.63-.12-.12s-4.8-4.63-14-4.63c-10.88 0-18.89 7.4-19.06 17.6v.24c.27 10.09 8.25 17.39 19.05 17.39a26.28 26.28 0 0 0 3.27-.2c3.87-.5 9.19-2 12.54-6.53V54.76h-15v7.59zm114.77-6.29a7.81 7.81 0 0 0 4.22-7.18c0-5.09-3.93-8.52-9.77-8.52h-12.29v33.4h12.69c6.48 0 10.83-3.8 10.83-9.45a8.29 8.29 0 0 0-5.68-8.25zm1.62 8.16c0 3.83-2.57 6.21-6.72 6.21h-8.83V57.91h8.78c4.05 0 6.77 2.53 6.77 6.3zm-15.55-9.55v-11h8.33c3.59 0 5.81 2.07 5.81 5.41s-2.32 5.56-5.76 5.56h-8.38zm44.24-14.88c-10.21 0-18.22 7.49-18.22 17.05 0 9.8 8 17.48 18.22 17.48s18.22-7.68 18.22-17.48c-.01-9.56-8.01-17.05-18.22-17.05zm14.16 17.05a14.16 14.16 0 0 1-28.32 0c0-7.64 6.22-13.62 14.16-13.62s14.16 5.99 14.16 13.63zm28.13-17.05c-10.21 0-18.22 7.49-18.22 17.05 0 9.8 8 17.48 18.22 17.48s18.22-7.68 18.22-17.48c0-9.56-8-17.05-18.22-17.05zM580 56.85a14.16 14.16 0 0 1-28.32 0c0-7.64 6.22-13.62 14.16-13.62S580 49.21 580 56.85z"/><path class="cls-2" d="M602.62 56.19L617.64 40.26 612.73 40.26 596.28 57.54 596.28 40.47 596.26 40.26 592.34 40.26 592.34 73.45 592.35 73.66 596.28 73.66 596.28 62.84 600.07 58.84 613.89 73.66 618.81 73.66 602.62 56.19z"/><path class="cls-2" d="M169.86 56.66L159.16 40.45 159.1 40.36 154.19 40.36 167.94 61.04 167.94 73.76 171.78 73.76 171.78 61.04 185.51 40.36 180.62 40.36 169.86 56.66z"/><path class="cls-2" d="M131.82 64.23L119.21 40.48 119.15 40.36 113.95 40.36 113.95 73.76 117.79 73.76 117.79 45.89 130.09 69.07 130.15 69.18 133.48 69.18 145.84 45.89 145.84 73.76 149.69 73.76 149.69 40.36 144.48 40.36 131.82 64.23z"/></svg>